<svg viewBox="0 0 14 14" width="20px" fill="currentColor" xmlns="http://www.w3.org/2000/svg">
<path d="M7.47003 6.89984C7.3217 6.96425 7.16173 6.99748 7.00003 6.99748C6.83832 6.99748 6.67835 6.96425 6.53003 6.89984L0.830026 4.25984C0.737468 4.21316 0.659684 4.1417 0.605338 4.05342C0.550992 3.96514 0.522217 3.86351 0.522217 3.75984C0.522217 3.65617 0.550992 3.55454 0.605338 3.46626C0.659684 3.37799 0.737468 3.30653 0.830026 3.25984L6.53003 0.599839C6.67835 0.535432 6.83832 0.502197 7.00003 0.502197C7.16173 0.502197 7.3217 0.535432 7.47003 0.599839L13.17 3.23984C13.2626 3.28653 13.3404 3.35799 13.3947 3.44626C13.4491 3.53454 13.4778 3.63617 13.4778 3.73984C13.4778 3.84351 13.4491 3.94514 13.3947 4.03342C13.3404 4.1217 13.2626 4.19316 13.17 4.23984L7.47003 6.89984Z" stroke="white" stroke-linecap="round" stroke-linejoin="round"/>
<path d="M13.5 7.34985L7.4 10.1599C7.26972 10.2193 7.12819 10.2501 6.985 10.2501C6.84181 10.2501 6.70028 10.2193 6.57 10.1599L0.5 7.34985" stroke="white" stroke-linecap="round" stroke-linejoin="round"/>
<path d="M13.5 10.5999L7.4 13.4099C7.26972 13.4693 7.12819 13.5001 6.985 13.5001C6.84181 13.5001 6.70028 13.4693 6.57 13.4099L0.5 10.5999" stroke="white" stroke-linecap="round" stroke-linejoin="round"/>
</svg>
