<svg 
  width="20" 
  height="20" 
  viewBox="0 0 368 384" 
  fill="none" 
  xmlns="http://www.w3.org/2000/svg"
>
  <path 
    fillRule="evenodd" 
    clipRule="evenodd" 
    d="M73.6 43.6C81.8 43.6 94.3 43.6 94.3 43.6H207.3C219.6 43.6 228 52 228.2 64.3V76.8C228 80.7 229.6 82 233.4 82H290.4C293.9 82 297.4 82.1 300.8 83C308.6 85.2 314.3 92.8 314.3 101.4V183.4C314.3 194.6 306.1 202.8 294.7 203.2H211C200.8 203.2 191.1 203.3 181.5 203.2C167.8 203 159.8 194.9 159.7 181.2V168.7C159.7 166.3 158.7 165.1 156.1 165H136.4C130.4 179 122.9 185.3 116.1 192.1C115.2 193 114.4 194.2 112.7 194.1C111.1 192.9 111.7 191.1 111.7 189.5V171.5C111.6 165 111.6 165 104.9 165H94.4C81.7 164.6 73.6 156.4 73.6 143.7V64.2C73.6 51.8 81.8 43.6 94.3 43.6Z" 
    fill="currentColor"
  />
  <path 
    fillRule="evenodd" 
    clipRule="evenodd" 
    d="M202.9 218V321C203.2 334.5 211.3 342.3 224.6 342.3H322.1C335.3 342.3 343.3 334.1 343.3 321.2V130.3C343.2 120.8 336.3 112.9 327.2 111.2C325.9 110.9 324.6 110.5 323.6 111.8C321.6 114.4 323.1 120.7 326.2 122C330.9 124 332.6 127.5 332.6 132.3V283.2C332.7 287.2 331.4 288.7 327.2 288.7H219.3C214.9 288.7 213.9 287 214 283.1V217.1C214 215.1 214.4 212.7 211.5 211.8C205.8 210 202.9 212 202.9 218Z" 
    fill="currentColor"
  />
  <path 
    fillRule="evenodd" 
    clipRule="evenodd" 
    d="M44.6 317.8C44.6 334.9 51.7 342.4 69 342.3H164C175.6 342.3 183.6 335.8 184.6 324.3V217.3C185.1 212.9 183.7 211.5 179.3 211.5C173.1 211.6 174 215.9 174 219.5V282.5C174 287.3 172.6 288.7 167.7 288.7H61.8C55.3 288.6 55.3 288.6 55.3 281.8V135.8C55.2 129.4 56 124.2 62.9 121.3C66.7 119.7 65.4 115.3 64.4 112.4C63.4 109.4 60.6 111.2 58.8 111.8C49.7 114.4 44.7 121.8 44.7 132.3V317.8Z" 
    fill="currentColor"
  />
</svg>