<svg version="1.1" id="Layer_1" xmlns="http://www.w3.org/2000/svg" xmlns:xlink="http://www.w3.org/1999/xlink" x="0px" y="0px"
	 width="24" height="24" fill="currentColor" viewBox="0 0 368 384">
<path fill="currentColor" opacity="1.000000" stroke="none" 
	d="
M210.999817,203.303101 
	C200.835449,203.281433 191.170456,203.322113 181.506912,203.222916 
	C167.882141,203.083038 159.820084,194.930466 159.707275,181.291687 
	C159.672821,177.126068 159.637222,172.959335 159.698212,168.794510 
	C159.734451,166.320343 158.702850,165.123459 156.174103,165.051086 
	C148.821121,164.840652 142.014481,164.640533 136.465729,171.572403 
	C130.467560,179.065735 122.981468,185.369019 116.130753,192.177689 
	C115.211166,193.091629 114.408684,194.264191 112.734436,194.100845 
	C111.115219,192.930298 111.743164,191.119049 111.723190,189.571518 
	C111.645767,183.573715 111.707153,177.574203 111.699570,171.575363 
	C111.691338,165.066147 111.682945,165.065414 104.943794,165.058685 
	C101.444489,165.055191 97.942764,165.138870 94.446320,165.038025 
	C81.726082,164.671188 73.670288,156.428513 73.658905,143.745071 
	C73.635132,117.250099 73.628654,90.755074 73.662811,64.260132 
	C73.678818,51.845394 81.853127,43.680157 94.360336,43.666130 
	C132.019760,43.623894 169.679260,43.630768 207.338699,43.659832 
	C219.602005,43.669296 228.013474,52.002041 228.272888,64.318558 
	C228.360596,68.482582 228.489334,72.662598 228.230011,76.812225 
	C227.981461,80.789589 229.593109,82.012642 233.446198,81.986343 
	C252.441681,81.856667 271.438629,81.957390 290.434937,81.918060 
	C293.958374,81.910767 297.466705,82.134750 300.834320,83.057327 
	C308.691772,85.209915 314.301392,92.871246 314.318634,101.477524 
	C314.373322,128.805573 314.388641,156.133896 314.322510,183.461884 
	C314.295441,194.646759 306.128448,202.841248 294.737396,203.261673 
	C290.410614,203.421371 286.061218,203.502457 281.744446,203.245255 
	C277.701996,203.004395 276.039124,204.338074 276.227539,208.589951 
	C276.514984,215.075882 276.337067,221.584488 276.270050,228.082565 
	C276.253693,229.669189 276.802734,231.402939 275.524078,232.868896 
	C273.487701,233.020157 272.690125,231.291504 271.583252,230.196609 
	C263.883209,222.579849 256.131073,215.009277 248.652557,207.178513 
	C245.877823,204.273071 242.965942,203.120758 238.990799,203.223877 
	C229.832626,203.461426 220.664139,203.301590 210.999817,203.303101 
M261.570282,204.853668 
	C262.722687,205.584457 263.324127,207.423157 265.665344,206.572632 
	C265.665344,203.367767 265.770264,200.059753 265.634308,196.761673 
	C265.511383,193.779678 266.711151,192.590302 269.726929,192.637344 
	C277.050507,192.751541 284.377533,192.699326 291.702606,192.640991 
	C300.350128,192.572144 303.678345,189.181732 303.684692,180.447784 
	C303.702820,155.474533 303.700806,130.501236 303.691589,105.527969 
	C303.687897,95.494446 301.336761,93.046806 291.471252,93.039238 
	C255.176849,93.011391 218.882385,93.012596 182.587997,93.038879 
	C173.383072,93.045540 170.364319,96.088188 170.355453,105.276039 
	C170.331512,130.082794 170.328949,154.889587 170.350128,179.696350 
	C170.358231,189.198273 173.780960,192.624847 183.305389,192.645401 
	C199.954132,192.681320 216.661530,193.508667 233.232208,192.371017 
	C245.215622,191.548294 254.196335,194.785889 261.570282,204.853668 
M84.288086,129.497910 
	C84.295929,133.997742 84.256699,138.498276 84.322029,142.997269 
	C84.436028,150.847641 87.365242,153.805374 95.271889,153.905792 
	C102.770592,154.001038 110.272354,154.022247 117.770546,153.917099 
	C121.191994,153.869125 122.466782,155.241226 122.420898,158.680435 
	C122.376572,162.003021 121.651581,165.467651 122.990479,168.779495 
	C125.062080,168.213440 126.300537,166.983948 127.256195,165.688629 
	C133.996475,156.552856 142.557205,151.799606 154.216431,153.879913 
	C158.720657,154.683578 159.831711,152.375565 159.767868,148.141037 
	C159.554306,133.977936 159.691284,119.809471 159.704834,105.643074 
	C159.720032,89.752632 167.413422,82.012474 183.304260,81.947411 
	C193.137238,81.907150 202.972092,81.831718 212.802811,81.984169 
	C216.465866,82.040977 217.936432,80.745384 217.701355,77.025520 
	C217.460068,73.207436 217.703598,69.361298 217.632492,65.529335 
	C217.490707,57.887035 213.898300,54.368633 206.111526,54.362972 
	C169.445557,54.336315 132.779541,54.335258 96.113571,54.356651 
	C87.317123,54.361786 84.330299,57.306126 84.313400,66.000000 
	C84.272903,86.832855 84.292984,107.665825 84.288086,129.497910 
z"/>
<path fill="currentColor" opacity="1.000000" stroke="none" 
	d="
M202.898163,288.000000 
	C202.914215,264.344940 202.910202,241.189819 202.961044,218.034836 
	C202.974075,212.098557 205.865982,210.098114 211.536682,211.820267 
	C214.432007,212.699554 213.992584,215.104309 214.007675,217.154449 
	C214.093582,228.814743 214.079361,240.475800 214.089294,252.136597 
	C214.098083,262.464722 214.209732,272.794800 214.036224,283.119965 
	C213.970596,287.025421 214.950180,288.752411 219.325134,288.734283 
	C255.306534,288.585205 291.289032,288.596130 327.270569,288.731659 
	C331.472870,288.747467 332.714813,287.267456 332.708405,283.231873 
	C332.628601,232.923859 332.667236,182.615677 332.683899,132.307526 
	C332.685455,127.534134 330.899323,124.005829 326.275604,122.038429 
	C323.155151,120.710670 321.674438,114.448891 323.627747,111.889694 
	C324.652466,110.547112 325.929321,110.945213 327.251892,111.199974 
	C336.386047,112.959625 343.190460,120.864784 343.266479,130.295807 
	C343.395416,146.286819 343.321503,162.279480 343.325836,178.271454 
	C343.338715,225.914261 343.350006,273.557068 343.357727,321.199890 
	C343.359833,334.188965 335.292267,342.317047 322.110138,342.340179 
	C289.626556,342.397186 257.142761,342.377625 224.659119,342.336731 
	C211.296402,342.319916 203.244156,334.495636 202.954819,320.982269 
	C202.723099,310.159393 202.901901,299.327759 202.898163,288.000000 
M305.499817,331.662445 
	C311.164825,331.652069 316.831146,331.713287 322.494537,331.612000 
	C328.655029,331.501831 332.497864,327.789307 332.643066,321.685974 
	C332.785675,315.691010 332.574982,309.687683 332.718048,303.692749 
	C332.794037,300.507721 331.640503,299.255859 328.361877,299.262634 
	C291.705475,299.338287 255.048828,299.339813 218.392410,299.276764 
	C215.118469,299.271118 213.940002,300.570679 214.024490,303.736267 
	C214.166702,309.064697 214.066833,314.399200 214.105240,319.730896 
	C214.172028,329.002808 216.790909,331.631439 226.021347,331.637512 
	C252.180908,331.654724 278.340485,331.650787 305.499817,331.662445 
z"/>
<path fill="currentColor" opacity="1.000000" stroke="none" 
	d="
M69.051804,342.359650 
	C51.744923,342.461975 44.586254,334.905945 44.617023,317.854462 
	C44.728580,256.030609 44.675827,194.206528 44.710270,132.382538 
	C44.716125,121.873985 49.762592,114.468544 58.810219,111.806656 
	C60.659988,111.262436 63.452869,109.418488 64.437103,112.409241 
	C65.411789,115.370979 66.744774,119.721375 62.947315,121.329079 
	C56.027565,124.258629 55.229557,129.407242 55.248947,135.890030 
	C55.394463,184.548859 55.330429,233.208298 55.335503,281.867554 
	C55.336208,288.616638 55.345196,288.643768 61.807915,288.645813 
	C97.135933,288.656952 132.464386,288.569519 167.791443,288.753845 
	C172.605011,288.778931 174.079773,287.357178 174.029449,282.545197 
	C173.809937,261.552246 173.903351,240.555420 173.988815,219.560425 
	C174.003738,215.896286 173.178299,211.619156 179.345795,211.567322 
	C183.716339,211.530579 185.118118,212.985199 185.094757,217.353561 
	C184.964676,241.681778 185.129608,266.011353 185.108322,290.340393 
	C185.098404,301.664886 185.523880,313.040283 184.606628,324.299316 
	C183.664154,335.867950 175.673294,342.309265 164.027390,342.327301 
	C132.532471,342.376099 101.037430,342.350372 69.051804,342.359650 
M133.500046,299.309296 
	C109.358337,299.310120 85.216125,299.390747 61.075405,299.237030 
	C56.807636,299.209839 55.009441,300.427460 55.256386,304.902985 
	C55.567806,310.547089 55.255108,316.222626 55.390919,321.880310 
	C55.526028,327.508759 59.206886,331.539459 64.710266,331.557129 
	C98.008636,331.663940 131.307632,331.674683 164.606018,331.577728 
	C170.515564,331.560516 173.709335,328.124451 173.882721,322.103668 
	C174.055222,316.114807 173.806519,310.113556 173.991135,304.125397 
	C174.105576,300.412537 172.601547,299.210266 168.963837,299.261688 
	C157.477982,299.424194 145.988281,299.314453 133.500046,299.309296 
z"/>
<path fill="currentColor" opacity="1.000000" stroke="none" 
	d="
M271.114746,174.707703 
	C269.648712,178.172943 267.503510,180.042465 264.037323,178.553406 
	C261.516174,177.470352 260.276489,175.263016 261.040283,172.478683 
	C261.725800,169.979614 263.559082,168.575592 266.201416,168.778046 
	C269.513245,169.031784 271.239136,170.920212 271.114746,174.707703 
z"/>
<path fill="currentColor" opacity="1.000000" stroke="none" 
	d="
M206.507599,169.035553 
	C209.904175,168.368912 212.111877,169.498138 213.241684,172.327286 
	C213.968536,174.147415 213.642548,175.956268 212.091904,177.309418 
	C209.815933,179.295486 207.247269,179.895569 205.055084,177.477264 
	C202.345276,174.487946 202.516418,171.519211 206.507599,169.035553 
z"/>
<path fill="currentColor" opacity="1.000000" stroke="none" 
	d="
M222.664566,175.323456 
	C221.743942,171.393066 223.738266,169.556198 226.807114,168.896042 
	C229.351669,168.348663 231.395187,169.565399 232.264023,172.126709 
	C233.101349,174.595062 232.549286,176.750290 230.193771,178.152969 
	C226.800003,180.173965 224.567520,178.560257 222.664566,175.323456 
z"/>
<path fill="currentColor" opacity="1.000000" stroke="none" 
	d="
M249.823441,177.934113 
	C246.425308,179.961212 243.965256,179.003342 242.354080,176.143280 
	C241.072403,173.868134 241.569885,171.537231 243.681656,169.890045 
	C245.956009,168.116058 248.450958,168.153473 250.440674,170.241043 
	C252.763687,172.678299 252.640274,175.307953 249.823441,177.934113 
z"/>
<path fill="currentColor" opacity="1.000000" stroke="none" 
	d="
M283.558594,178.727829 
	C280.959869,177.137268 279.334259,175.332855 280.216248,172.466751 
	C280.830658,170.470245 282.148621,168.944962 284.403290,168.784058 
	C287.676270,168.550491 290.058411,169.940674 290.186615,173.372574 
	C290.339203,177.459381 288.060242,179.378174 283.558594,178.727829 
z"/>
<path fill="currentColor" opacity="1.000000" stroke="none" 
	d="
M193.337952,170.839981 
	C194.811523,173.745285 194.526215,176.085800 192.287979,177.913544 
	C190.783813,179.141830 188.998657,179.597305 187.181427,178.480560 
	C184.474945,176.817352 182.772064,174.548080 184.713882,171.459030 
	C186.951035,167.900177 189.943665,167.731064 193.337952,170.839981 
z"/>
<path fill="currentColor" opacity="1.000000" stroke="none" 
	d="
M123.482208,130.499603 
	C126.872719,132.029465 127.949982,134.394302 126.745758,137.462677 
	C125.903320,139.609222 123.994888,140.825378 121.680099,140.729477 
	C119.056282,140.620804 117.525528,138.864731 116.943405,136.428787 
	C116.100952,132.903534 118.360214,130.751190 123.482208,130.499603 
z"/>
<path fill="currentColor" opacity="1.000000" stroke="none" 
	d="
M97.758148,135.820465 
	C97.818420,131.920547 99.738548,130.239105 103.110092,130.380173 
	C105.988815,130.500610 107.790253,132.285843 108.028938,135.069305 
	C108.270287,137.883789 106.643082,139.893646 103.916542,140.494049 
	C100.523773,141.241165 98.643646,139.348465 97.758148,135.820465 
z"/>
<path fill="currentColor" opacity="1.000000" stroke="none" 
	d="
M141.140778,130.295044 
	C144.911865,130.716309 146.598953,132.637329 146.202347,136.043030 
	C145.902481,138.618103 144.227127,140.386826 141.741562,140.737000 
	C139.125168,141.105621 137.239761,139.421127 136.398224,137.098755 
	C134.961945,133.135071 137.263245,131.264481 141.140778,130.295044 
z"/>
<path fill="currentColor" opacity="1.000000" stroke="none" 
	d="
M266.463837,311.891357 
	C270.145966,307.507599 273.866821,306.633911 277.407532,308.999878 
	C280.521576,311.080841 281.823395,315.884674 279.832886,319.179718 
	C277.841888,322.475616 274.783661,323.952240 270.923431,322.747589 
	C266.634491,321.409180 265.198700,318.023224 266.463837,311.891357 
z"/>
<path fill="currentColor" opacity="1.000000" stroke="none" 
	d="
M108.333405,319.475281 
	C106.937515,316.401581 106.741302,313.669983 108.464088,311.068268 
	C110.795189,307.547852 115.470787,306.650574 119.025627,308.981720 
	C122.286652,311.120178 123.368370,315.714752 121.416046,319.135010 
	C119.314415,322.816864 114.758003,324.175629 111.128365,322.085815 
	C110.152229,321.523773 109.400452,320.572021 108.333405,319.475281 
z"/>
</svg>