<svg xmlns="http://www.w3.org/2000/svg"
  viewBox="0 0 50 50"
  width="20"
  height="20"
  fill="currentColor"
  stroke="currentColor"
  stroke-width="1.5"
  stroke-linejoin="round"
  stroke-linecap="round">
  <path d="M 22.205078 2 A 1.0001 1.0001 0 0 0 21.21875 2.8378906 L 20.246094 8.7929688 C 19.076509 9.1331971 17.961243 9.5922728 16.910156 10.164062 L 11.996094 6.6542969 A 1.0001 1.0001 0 0 0 10.708984 6.7597656 L 6.8183594 10.646484 A 1.0001 1.0001 0 0 0 6.7070312 11.927734 L 10.164062 16.873047 C 9.583454 17.930271 9.1142098 19.051824 8.765625 20.232422 L 2.8359375 21.21875 A 1.0001 1.0001 0 0 0 2.0019531 22.205078 L 2.0019531 27.705078 A 1.0001 1.0001 0 0 0 2.8261719 28.691406 L 8.7597656 29.742188 C 9.1064607 30.920739 9.5727226 32.043065 10.154297 33.101562 L 6.6542969 37.998047 A 1.0001 1.0001 0 0 0 6.7597656 39.285156 L 10.648438 43.175781 A 1.0001 1.0001 0 0 0 11.927734 43.289062 L 16.882812 39.820312 C 17.936999 40.39548 19.054994 40.857928 20.228516 41.201172 L 21.21875 47.164062 A 1.0001 1.0001 0 0 0 22.205078 48 L 27.705078 48 A 1.0001 1.0001 0 0 0 28.691406 47.173828 L 29.751953 41.1875 C 30.920633 40.838997 32.033372 40.369697 33.082031 39.791016 L 38.070312 43.291016 A 1.0001 1.0001 0 0 0 39.351562 43.179688 L 43.240234 39.287109 A 1.0001 1.0001 0 0 0 43.34375 37.996094 L 39.787109 33.058594 C 40.355783 32.014958 40.813915 30.908875 41.154297 29.748047 L 47.171875 28.693359 A 1.0001 1.0001 0 0 0 47.998047 27.707031 L 47.998047 22.207031 A 1.0001 1.0001 0 0 0 47.160156 21.220703 L 41.152344 20.238281 C 40.80968 19.078827 40.350281 17.974723 39.78125 16.931641 L 43.289062 11.933594 A 1.0001 1.0001 0 0 0 43.177734 10.652344 L 39.287109 6.7636719 A 1.0001 1.0001 0 0 0 37.996094 6.6601562 L 33.072266 10.201172 C 32.023186 9.6248101 30.909713 9.1579916 29.738281 8.8125 L 28.691406 2.828125 A 1.0001 1.0001 0 0 0 27.705078 2 Z"/>
</svg>
